<?xml version="1.0" encoding="UTF-8"?>
<!-- Generator: visioncortex VTracer 0.6.12 -->
<svg version="1.1" xmlns="http://www.w3.org/2000/svg" width="551" height="551" viewBox="-49 0 551 551">
<path d="M0 0 C0.726 0.666 1.451 1.333 2.199 2.02 C2.977 2.717 3.754 3.414 4.555 4.133 C25.668 24.044 28.423 52.839 32.211 80.019 C32.705 83.551 33.208 87.083 33.71 90.614 C34.664 97.33 35.611 104.048 36.554 110.766 C37.705 118.963 38.865 127.158 40.025 135.354 C40.44 138.281 40.854 141.208 41.269 144.136 C41.371 144.856 41.473 145.576 41.578 146.318 C42.192 150.656 42.805 154.994 43.417 159.332 C46.201 179.064 49.033 198.788 51.94 218.503 C53.293 227.693 54.617 236.887 55.892 246.088 C56.023 247.023 56.154 247.957 56.29 248.92 C56.409 249.791 56.528 250.661 56.651 251.558 C56.704 251.941 56.704 251.941 56.973 253.881 C57.199 256.02 57.199 256.02 57.199 260.02 C58.148 260.061 59.097 260.102 60.074 260.145 C65.497 260.905 69.732 264.032 74.199 267.02 C75.107 267.618 76.014 268.216 76.949 268.832 C88.957 280.506 90.014 299.458 92.919 315.214 C93.455 318.111 94.002 321.006 94.551 323.9 C94.898 325.764 95.244 327.628 95.59 329.492 C95.671 329.919 95.671 329.919 96.082 332.081 C97.998 342.603 97.402 352.415 91.504 361.684 C86.212 368.09 79.396 372.386 71.199 374.02 C68.958 374.114 66.715 374.15 64.472 374.154 C63.794 374.156 63.115 374.158 62.416 374.161 C60.131 374.168 57.847 374.167 55.562 374.167 C53.912 374.17 52.261 374.174 50.611 374.178 C46.067 374.188 41.524 374.192 36.98 374.194 C32.083 374.198 27.185 374.208 22.288 374.216 C10.457 374.236 -1.374 374.246 -13.205 374.255 C-18.775 374.26 -24.345 374.265 -29.916 374.27 C-48.432 374.287 -66.947 374.302 -85.463 374.309 C-90.268 374.311 -95.074 374.313 -99.879 374.315 C-101.073 374.315 -102.268 374.316 -103.498 374.316 C-122.849 374.324 -142.199 374.35 -161.55 374.382 C-181.413 374.415 -201.277 374.433 -221.14 374.437 C-232.294 374.439 -243.448 374.447 -254.602 374.473 C-264.101 374.495 -273.599 374.503 -283.098 374.493 C-287.944 374.489 -292.789 374.49 -297.635 374.51 C-302.074 374.527 -306.513 374.526 -310.952 374.511 C-312.555 374.509 -314.158 374.513 -315.761 374.525 C-328.199 374.611 -337.559 373.074 -346.82 364.305 C-353.549 356.541 -355.306 348.062 -354.801 338.02 C-354.29 333.89 -353.568 329.808 -352.824 325.715 C-352.616 324.555 -352.409 323.395 -352.195 322.2 C-351.753 319.757 -351.308 317.315 -350.858 314.874 C-350.18 311.166 -349.531 307.455 -348.883 303.742 C-348.448 301.358 -348.012 298.974 -347.574 296.59 C-347.48 296.042 -347.48 296.042 -347.005 293.268 C-344.764 281.473 -339.837 271.929 -329.801 265.02 C-324.79 262.236 -320.59 260.02 -314.801 260.02 C-314.753 259.189 -314.706 258.359 -314.657 257.504 C-314.08 248.415 -312.997 239.479 -311.671 230.469 C-311.454 228.966 -311.237 227.462 -311.02 225.958 C-310.435 221.908 -309.845 217.859 -309.253 213.811 C-308.626 209.518 -308.005 205.224 -307.383 200.93 C-306.335 193.696 -305.283 186.462 -304.228 179.229 C-302.763 169.176 -301.304 159.123 -299.846 149.07 C-298.693 141.118 -297.538 133.166 -296.383 125.215 C-296.263 124.392 -296.144 123.569 -296.021 122.721 C-293.848 107.762 -293.848 107.762 -292.892 101.275 C-292.778 100.505 -292.665 99.736 -292.548 98.943 C-292.318 97.383 -292.088 95.823 -291.858 94.263 C-291.113 89.195 -290.39 84.125 -289.677 79.052 C-289.17 75.465 -288.654 71.879 -288.136 68.293 C-287.894 66.599 -287.656 64.904 -287.422 63.209 C-284.676 43.275 -280.078 24.727 -266.801 9.02 C-266.566 8.712 -266.566 8.712 -265.375 7.156 C-261.292 1.969 -256.35 -1.472 -250.801 -4.98 C-249.793 -5.62 -248.785 -6.259 -247.746 -6.918 C-184.705 -44.891 -58.848 -50.656 0 0 Z " fill="#EC312A" transform="translate(354.80078125,176.98046875)"/>
<path d="M0 0 C0.726 0.666 1.451 1.333 2.199 2.02 C2.977 2.717 3.754 3.414 4.555 4.133 C25.668 24.044 28.423 52.839 32.211 80.019 C32.705 83.551 33.208 87.083 33.71 90.614 C34.664 97.33 35.611 104.048 36.554 110.766 C37.705 118.963 38.865 127.158 40.025 135.354 C40.44 138.281 40.854 141.208 41.269 144.136 C41.371 144.856 41.473 145.576 41.578 146.318 C42.192 150.656 42.805 154.994 43.417 159.332 C46.201 179.064 49.033 198.788 51.94 218.503 C53.293 227.693 54.617 236.887 55.892 246.088 C56.023 247.023 56.154 247.957 56.29 248.92 C56.409 249.791 56.528 250.661 56.651 251.558 C56.704 251.941 56.704 251.941 56.973 253.881 C57.199 256.02 57.199 256.02 57.199 260.02 C58.148 260.061 59.097 260.102 60.074 260.145 C65.497 260.905 69.732 264.032 74.199 267.02 C75.107 267.618 76.014 268.216 76.949 268.832 C88.957 280.506 90.014 299.458 92.919 315.214 C93.455 318.111 94.002 321.006 94.551 323.9 C94.898 325.764 95.244 327.628 95.59 329.492 C95.671 329.919 95.671 329.919 96.082 332.081 C97.998 342.603 97.402 352.415 91.504 361.684 C86.212 368.09 79.396 372.386 71.199 374.02 C68.958 374.114 66.715 374.15 64.472 374.154 C63.794 374.156 63.115 374.158 62.416 374.161 C60.131 374.168 57.847 374.167 55.562 374.167 C53.912 374.17 52.261 374.174 50.611 374.178 C46.067 374.188 41.524 374.192 36.98 374.194 C32.083 374.198 27.185 374.208 22.288 374.216 C10.457 374.236 -1.374 374.246 -13.205 374.255 C-18.775 374.26 -24.345 374.265 -29.916 374.27 C-48.432 374.287 -66.947 374.302 -85.463 374.309 C-90.268 374.311 -95.074 374.313 -99.879 374.315 C-101.073 374.315 -102.268 374.316 -103.498 374.316 C-122.849 374.324 -142.199 374.35 -161.55 374.382 C-181.413 374.415 -201.277 374.433 -221.14 374.437 C-232.294 374.439 -243.448 374.447 -254.602 374.473 C-264.101 374.495 -273.599 374.503 -283.098 374.493 C-287.944 374.489 -292.789 374.49 -297.635 374.51 C-302.074 374.527 -306.513 374.526 -310.952 374.511 C-312.555 374.509 -314.158 374.513 -315.761 374.525 C-328.199 374.611 -337.559 373.074 -346.82 364.305 C-353.549 356.541 -355.306 348.062 -354.801 338.02 C-354.29 333.89 -353.568 329.808 -352.824 325.715 C-352.616 324.555 -352.409 323.395 -352.195 322.2 C-351.753 319.757 -351.308 317.315 -350.858 314.874 C-350.18 311.166 -349.531 307.455 -348.883 303.742 C-348.448 301.358 -348.012 298.974 -347.574 296.59 C-347.48 296.042 -347.48 296.042 -347.005 293.268 C-344.764 281.473 -339.837 271.929 -329.801 265.02 C-324.79 262.236 -320.59 260.02 -314.801 260.02 C-314.753 259.189 -314.706 258.359 -314.657 257.504 C-314.08 248.415 -312.997 239.479 -311.671 230.469 C-311.454 228.966 -311.237 227.462 -311.02 225.958 C-310.435 221.908 -309.845 217.859 -309.253 213.811 C-308.626 209.518 -308.005 205.224 -307.383 200.93 C-306.335 193.696 -305.283 186.462 -304.228 179.229 C-302.763 169.176 -301.304 159.123 -299.846 149.07 C-298.693 141.118 -297.538 133.166 -296.383 125.215 C-296.263 124.392 -296.144 123.569 -296.021 122.721 C-293.848 107.762 -293.848 107.762 -292.892 101.275 C-292.778 100.505 -292.665 99.736 -292.548 98.943 C-292.318 97.383 -292.088 95.823 -291.858 94.263 C-291.113 89.195 -290.39 84.125 -289.677 79.052 C-289.17 75.465 -288.654 71.879 -288.136 68.293 C-287.894 66.599 -287.656 64.904 -287.422 63.209 C-284.676 43.275 -280.078 24.727 -266.801 9.02 C-266.566 8.712 -266.566 8.712 -265.375 7.156 C-261.292 1.969 -256.35 -1.472 -250.801 -4.98 C-249.793 -5.62 -248.785 -6.259 -247.746 -6.918 C-184.705 -44.891 -58.848 -50.656 0 0 Z M-172.801 -5.98 C-173.588 -5.858 -174.375 -5.735 -175.187 -5.608 C-179.758 -4.872 -184.278 -3.979 -188.801 -2.98 C-189.441 -2.84 -190.081 -2.7 -190.741 -2.556 C-211.267 2.017 -231.842 8.583 -246.801 24.02 C-247.383 24.593 -247.966 25.167 -248.566 25.758 C-259.728 37.567 -261.335 55.272 -263.508 70.625 C-263.758 72.352 -264.008 74.079 -264.259 75.806 C-264.919 80.355 -265.57 84.905 -266.22 89.455 C-266.987 94.824 -267.764 100.191 -268.539 105.558 C-268.667 106.439 -268.794 107.319 -268.925 108.226 C-269.052 109.106 -269.179 109.986 -269.31 110.893 C-269.696 113.566 -270.08 116.239 -270.465 118.912 C-271.768 127.963 -273.091 137.011 -274.455 146.053 C-274.59 146.953 -274.726 147.852 -274.865 148.779 C-275.509 153.043 -276.155 157.306 -276.806 161.568 C-278.125 170.244 -279.331 178.923 -280.383 187.635 C-280.938 192.132 -281.604 196.606 -282.301 201.082 C-283.345 207.917 -284.308 214.756 -285.195 221.613 C-285.692 225.328 -286.25 229.033 -286.812 232.738 C-286.995 233.945 -287.177 235.151 -287.365 236.394 C-287.733 238.815 -288.105 241.235 -288.48 243.655 C-288.65 244.777 -288.821 245.899 -288.996 247.055 C-289.074 247.557 -289.074 247.557 -289.465 250.098 C-289.801 253.02 -289.801 253.02 -289.801 259.02 C-183.541 259.02 -77.281 259.02 32.199 259.02 C31.603 251.268 30.973 243.98 29.739 236.371 C29.183 232.916 28.68 229.457 28.191 225.992 C28.014 224.734 27.836 223.476 27.653 222.18 C27.559 221.517 27.466 220.855 27.369 220.172 C25.242 205.105 23.023 190.052 20.781 175.002 C18.138 157.268 15.536 139.53 13.074 121.77 C12.834 120.038 12.593 118.306 12.352 116.575 C11.371 109.508 10.393 102.441 9.426 95.372 C8.775 90.622 8.117 85.872 7.453 81.124 C7.206 79.345 6.962 77.566 6.721 75.786 C5.536 67.037 4.198 58.377 2.211 49.77 C2.057 49.095 1.903 48.42 1.744 47.725 C-1.798 33.111 -9.942 21.653 -22.802 13.72 C-43.295 1.853 -67.481 -3.964 -90.801 -6.98 C-91.501 -7.082 -92.201 -7.183 -92.922 -7.288 C-119.106 -11.041 -146.745 -10.086 -172.801 -5.98 Z " fill="#282827" transform="translate(354.80078125,176.98046875)"/>
<path d="M0 0 C25.714 0.102 59.089 9.787 77.922 27.891 C86.8 36.902 90.882 46.184 93.465 58.367 C93.572 58.868 93.572 58.868 94.115 61.404 C96.504 72.919 98.054 84.531 99.562 96.188 C99.983 99.364 100.405 102.541 100.828 105.717 C101.113 107.859 101.397 110.001 101.68 112.143 C104.34 132.202 107.317 152.216 110.299 172.229 C113.578 194.237 116.818 216.245 119.592 238.324 C119.683 239.042 119.774 239.76 119.867 240.5 C120.105 242.379 120.338 244.259 120.57 246.139 C121 249 121 249 122 252 C122.33 256.29 122.66 260.58 123 265 C91.65 265 60.3 265 28 265 C27.887 261.452 27.887 261.452 27.312 243.5 C26.305 216.258 23.984 189.192 21.302 162.07 C21.022 159.224 20.748 156.377 20.476 153.531 C18.245 130.196 15.194 107.012 11.838 83.814 C10.947 77.644 10.072 71.47 9.199 65.297 C3.755 26.863 3.755 26.863 1.066 10.013 C0.994 9.559 0.994 9.559 0.629 7.258 C0.506 6.496 0.383 5.734 0.256 4.95 C0 3 0 3 0 0 Z " fill="#DD1E19" transform="translate(264,171)"/>
<path d="M0 0 C1.256 -0.004 2.512 -0.008 3.807 -0.012 C5.198 -0.011 6.589 -0.01 7.981 -0.009 C9.461 -0.012 10.941 -0.015 12.421 -0.018 C16.49 -0.026 20.558 -0.028 24.626 -0.029 C29.014 -0.03 33.401 -0.038 37.788 -0.045 C47.381 -0.058 56.974 -0.064 66.567 -0.069 C72.555 -0.072 78.544 -0.076 84.533 -0.08 C101.112 -0.092 117.69 -0.103 134.269 -0.106 C134.799 -0.106 134.799 -0.106 137.484 -0.107 C138.547 -0.107 139.611 -0.107 140.707 -0.107 C142.862 -0.108 145.017 -0.108 147.172 -0.109 C148.241 -0.109 149.31 -0.109 150.411 -0.109 C167.739 -0.113 185.068 -0.131 202.396 -0.154 C220.184 -0.178 237.972 -0.19 255.76 -0.192 C265.748 -0.192 275.737 -0.198 285.725 -0.216 C294.229 -0.232 302.732 -0.237 311.236 -0.229 C315.575 -0.225 319.914 -0.226 324.253 -0.24 C328.225 -0.252 332.197 -0.251 336.17 -0.239 C337.607 -0.237 339.043 -0.24 340.48 -0.249 C355.999 -0.337 355.999 -0.337 362.673 5.756 C364.798 9.131 364.798 9.131 365.798 18.131 C326.198 18.131 286.598 18.131 245.798 18.131 C246.128 20.771 246.458 23.411 246.798 26.131 C246.977 30.582 246.984 35.031 246.983 39.485 C246.985 41.561 247.003 43.636 247.022 45.712 C247.052 52.789 246.795 59.308 244.798 66.131 C243.231 67.698 241.698 67.262 239.519 67.268 C238.59 67.274 237.661 67.279 236.704 67.284 C235.671 67.284 234.639 67.285 233.575 67.285 C233.031 67.288 233.031 67.288 230.279 67.299 C226.604 67.312 222.929 67.318 219.254 67.324 C216.631 67.332 214.009 67.34 211.386 67.349 C203.493 67.374 195.6 67.388 187.707 67.401 C185.479 67.405 183.251 67.409 181.023 67.413 C167.194 67.438 153.366 67.46 139.537 67.473 C136.332 67.476 133.127 67.479 129.922 67.482 C129.524 67.482 129.524 67.482 127.508 67.484 C114.601 67.496 101.694 67.53 88.787 67.571 C75.545 67.614 62.302 67.637 49.059 67.643 C41.62 67.646 34.182 67.658 26.743 67.691 C19.747 67.722 12.751 67.727 5.754 67.715 C3.183 67.715 0.611 67.723 -1.961 67.741 C-5.465 67.763 -8.967 67.755 -12.471 67.739 C-12.983 67.746 -12.983 67.746 -15.573 67.781 C-20.305 67.728 -22.483 67.677 -26.349 64.746 C-28.504 61.706 -28.721 60.664 -28.222 57.026 C-28.153 56.5 -28.153 56.5 -27.806 53.837 C-27.607 52.614 -27.408 51.391 -27.202 50.131 C-27.092 49.425 -26.981 48.719 -26.867 47.991 C-26.098 43.106 -25.249 38.239 -24.356 33.375 C-23.888 30.809 -23.44 28.239 -22.993 25.669 C-22.693 24.014 -22.392 22.36 -22.089 20.706 C-21.96 19.948 -21.83 19.191 -21.697 18.41 C-20.514 12.164 -18.409 7.282 -13.765 2.756 C-9.392 -0.017 -5.083 0.006 0 0 Z " fill="#373737" transform="translate(53.202322006225586,459.8685722351074)"/>
<path d="M0 0 C0.997 -0.006 1.994 -0.013 3.022 -0.02 C6.366 -0.04 9.711 -0.053 13.056 -0.066 C15.452 -0.079 17.849 -0.092 20.246 -0.106 C28.116 -0.147 35.986 -0.178 43.857 -0.205 C44.191 -0.206 44.191 -0.206 45.885 -0.212 C59.177 -0.257 72.469 -0.296 85.762 -0.323 C88.681 -0.329 91.6 -0.335 94.52 -0.341 C95.245 -0.342 95.971 -0.344 96.718 -0.345 C108.484 -0.371 120.249 -0.428 132.015 -0.497 C144.096 -0.568 156.177 -0.608 168.258 -0.619 C175.041 -0.626 181.823 -0.647 188.606 -0.702 C194.982 -0.753 201.357 -0.765 207.733 -0.749 C210.076 -0.75 212.418 -0.764 214.761 -0.793 C217.955 -0.83 221.145 -0.819 224.338 -0.795 C225.27 -0.817 226.201 -0.84 227.161 -0.863 C229.737 -0.813 231.742 -0.697 234.169 0.174 C236.464 2.582 237.83 5.15 239.169 8.174 C239.602 9.061 240.035 9.948 240.482 10.862 C241.169 13.174 241.169 13.174 241.169 18.174 C169.889 18.174 98.609 18.174 25.169 18.174 C25.004 18.669 25.004 18.669 24.169 21.174 C23.77 21.543 23.77 21.543 21.747 23.408 C18.685 26.694 17.972 29.087 16.919 33.424 C16.754 34.094 16.588 34.765 16.417 35.456 C15.457 39.473 14.826 43.39 14.535 47.501 C14.024 51.231 13.075 54.817 12.138 58.459 C11.949 59.202 11.761 59.944 11.567 60.709 C11.104 62.532 10.637 64.353 10.169 66.174 C4.67 66.273 -0.829 66.346 -6.329 66.394 C-8.2 66.414 -10.071 66.441 -11.942 66.476 C-14.63 66.524 -17.318 66.547 -20.007 66.565 C-20.425 66.575 -20.425 66.575 -22.545 66.627 C-28.282 66.629 -28.282 66.629 -30.889 64.465 C-34.387 55.958 -29.617 42.309 -27.984 33.418 C-27.516 30.851 -27.069 28.282 -26.622 25.711 C-26.322 24.057 -26.02 22.402 -25.718 20.748 C-25.588 19.991 -25.459 19.233 -25.326 18.453 C-24.143 12.206 -22.038 7.324 -17.393 2.799 C-12.086 -0.567 -6.087 0.017 0 0 Z " fill="#686767" transform="translate(56.830810546875,459.82591247558594)"/>
<path d="M0 0 C6.407 5.938 9.092 10.51 9.938 19.25 C9.783 25.038 8.223 30.546 6.832 36.133 C5.282 42.411 3.964 48.737 2.625 55.062 C2.106 57.478 1.586 59.893 1.066 62.309 C0.104 66.795 -0.824 71.286 -1.723 75.785 C-2.127 77.732 -2.532 79.678 -2.938 81.625 C-3.102 82.499 -3.267 83.372 -3.437 84.272 C-4.87 90.994 -7.706 96.694 -13.409 100.792 C-19.098 104.14 -24.89 104.262 -31.188 102.688 C-36.299 99.706 -40.626 95.061 -42.438 89.375 C-43.898 78.003 -41.336 66.817 -39.101 55.712 C-38.356 51.965 -37.647 48.212 -36.941 44.457 C-36.549 42.383 -36.157 40.31 -35.763 38.236 C-35.508 36.89 -35.254 35.544 -35 34.197 C-30.017 7.809 -30.017 7.809 -18.688 -0.688 C-12.381 -2.507 -5.993 -2.833 0 0 Z " fill="#FDFBFB" transform="translate(162.4375,215.625)"/>
<path d="M0 0 C4.946 2.568 6.938 4.87 9 10 C9.284 12.807 9.421 15.387 9.404 18.189 C9.411 18.988 9.418 19.788 9.425 20.611 C9.443 23.24 9.439 25.867 9.434 28.496 C9.438 30.332 9.443 32.167 9.449 34.003 C9.458 37.845 9.456 41.687 9.446 45.53 C9.435 50.443 9.455 55.357 9.484 60.27 C9.502 64.06 9.502 67.849 9.496 71.638 C9.496 73.45 9.502 75.261 9.515 77.072 C9.53 79.609 9.519 82.145 9.502 84.681 C9.511 85.423 9.521 86.164 9.531 86.928 C9.453 92.47 8.055 95.538 5 100 C1.836 102.434 -1 103.818 -5 104 C-9.668 103.061 -13.1 101.9 -16.5 98.5 C-19.163 94.061 -19.154 90.159 -19.161 85.135 C-19.166 84.335 -19.171 83.535 -19.176 82.71 C-19.191 80.061 -19.198 77.411 -19.203 74.762 C-19.209 72.919 -19.215 71.077 -19.22 69.235 C-19.231 65.371 -19.237 61.506 -19.24 57.642 C-19.246 52.695 -19.27 47.749 -19.298 42.803 C-19.317 38.996 -19.322 35.19 -19.324 31.384 C-19.327 29.56 -19.335 27.737 -19.348 25.914 C-19.365 23.36 -19.363 20.807 -19.356 18.253 C-19.366 17.503 -19.375 16.753 -19.384 15.98 C-19.347 11.245 -18.537 8.005 -16 4 C-10.406 -0.312 -6.941 -1.529 0 0 Z " fill="#E12B26" transform="translate(231,1)"/>
<path d="M0 0 C4.128 1.876 5.62 3.363 7.938 7.25 C9.148 11.521 9.552 14.836 8 19 C2.744 26.405 -4.506 32.67 -10.918 39.086 C-12.064 40.235 -13.211 41.385 -14.357 42.535 C-16.744 44.928 -19.134 47.32 -21.525 49.71 C-24.587 52.772 -27.641 55.84 -30.694 58.91 C-33.053 61.28 -35.415 63.645 -37.78 66.008 C-38.908 67.138 -40.035 68.27 -41.161 69.403 C-42.73 70.982 -44.306 72.555 -45.884 74.126 C-46.777 75.022 -47.671 75.917 -48.592 76.839 C-52.878 80.685 -56.111 81.456 -61.75 81.316 C-66.297 80.677 -68.981 78.188 -71.875 74.812 C-73.446 70.884 -73.868 67.16 -73 63 C-70.325 58.583 -67.209 54.921 -63.561 51.302 C-63.03 50.768 -62.499 50.234 -61.953 49.683 C-60.213 47.935 -58.466 46.194 -56.719 44.453 C-55.501 43.234 -54.283 42.014 -53.065 40.794 C-50.52 38.246 -47.971 35.701 -45.419 33.159 C-42.151 29.902 -38.891 26.636 -35.635 23.367 C-33.125 20.85 -30.61 18.337 -28.094 15.826 C-26.89 14.624 -25.687 13.419 -24.486 12.214 C-22.809 10.531 -21.125 8.855 -19.439 7.181 C-18.946 6.683 -18.452 6.185 -17.944 5.673 C-12.308 0.106 -7.784 -0.971 0 0 Z " fill="#DE2924" transform="translate(434,67)"/>
<path d="M0 0 C4.526 1.646 7.074 5.224 10.117 8.82 C14.302 13.665 18.888 18.092 23.75 22.25 C28.986 26.749 33.776 31.698 38.623 36.606 C42.02 40.045 45.453 43.443 48.918 46.812 C50.341 48.208 51.764 49.604 53.188 51 C53.911 51.699 54.635 52.397 55.381 53.117 C56.074 53.8 56.767 54.484 57.48 55.188 C58.108 55.8 58.736 56.412 59.384 57.043 C62.021 60.236 62.9 63.245 63.438 67.312 C62.864 72.146 61.13 75.308 58 79 C54.216 81.455 49.418 81.778 45 81 C40.764 78.799 37.564 75.849 34.232 72.49 C33.678 71.941 33.125 71.391 32.555 70.824 C30.736 69.014 28.924 67.197 27.113 65.379 C25.848 64.115 24.582 62.85 23.315 61.587 C20.667 58.941 18.022 56.292 15.38 53.64 C11.994 50.243 8.599 46.855 5.201 43.469 C2.587 40.862 -0.023 38.25 -2.631 35.637 C-3.881 34.386 -5.132 33.136 -6.385 31.887 C-8.135 30.143 -9.878 28.392 -11.62 26.639 C-11.879 26.382 -11.879 26.382 -13.189 25.082 C-17.12 21.104 -18.835 18.7 -19.375 13.125 C-19.262 8.805 -17.789 6.331 -15 3 C-10.467 -1.139 -5.841 -0.611 0 0 Z " fill="#E02A24" transform="translate(28,67)"/>
<path d="M0 0 C14.873 -0.07 29.746 -0.123 44.62 -0.155 C51.526 -0.171 58.432 -0.192 65.339 -0.226 C72.004 -0.259 78.669 -0.277 85.335 -0.285 C87.877 -0.29 90.42 -0.301 92.962 -0.317 C96.525 -0.339 100.086 -0.342 103.649 -0.341 C104.174 -0.346 104.174 -0.346 106.831 -0.373 C114.25 -0.342 119.224 0.465 124.875 5.625 C126.924 8.88 127.321 10.065 127.633 13.711 C127.706 14.516 127.78 15.321 127.856 16.15 C127.903 16.76 127.951 17.371 128 18 C112.521 18.19 97.042 18.352 81.562 18.5 C80.323 18.512 79.083 18.524 77.806 18.536 C15.872 19.12 -46.063 19.084 -108 19.062 C-109.245 19.062 -110.491 19.062 -111.774 19.061 C-144.183 19.05 -176.591 19.03 -209 19 C-209 18.67 -209 18.34 -209 18 C-137.72 18 -66.44 18 7 18 C4.955 11.184 3.263 6.076 0 0 Z " fill="#444443" transform="translate(291,460)"/>
<path d="M0 0 C5.655 2.15 9.199 5.621 12 11 C14.871 19.612 13.547 32.186 9.965 40.363 C6.866 45.654 2.937 50.021 -3 52 C-8.212 52.499 -12.604 52.672 -17.375 50.375 C-25.829 42.726 -25.829 42.726 -26.203 36.762 C-26.43 25.112 -26.26 13.029 -18 4 C-12.743 -1 -6.888 -1.04 0 0 Z " fill="#FDFBFB" transform="translate(135,341)"/>
<path d="M0 0 C1.292 0.003 2.585 0.006 3.916 0.01 C5.271 0.018 6.626 0.027 7.98 0.035 C9.355 0.04 10.729 0.045 12.104 0.049 C15.458 0.061 18.813 0.077 22.168 0.098 C20.533 3.889 18.753 5.321 14.977 7.102 C11.27 8.416 7.508 9.206 3.668 10.035 C-6.092 12.173 -11.917 15.998 -19.266 22.742 C-20.832 24.098 -20.832 24.098 -21.832 24.098 C-21.539 15.181 -21 9.159 -14.395 2.723 C-9.831 -0.171 -5.301 -0.023 0 0 Z " fill="#959494" transform="translate(53.83203125,459.90234375)"/>
<path d="M0 0 C0 3 0 3 -2.25 5.438 C-3.158 6.283 -4.065 7.129 -5 8 C-5.382 8.382 -5.382 8.382 -7.312 10.312 C-7.869 10.869 -8.426 11.426 -9 12 C-9.66 11.67 -10.32 11.34 -11 11 C-7.37 7.37 -3.74 3.74 0 0 Z " fill="#E46560" transform="translate(376,113)"/>
<path d="M0 0 C0.33 0 0.66 0 1 0 C2.437 6.139 1.326 10.204 -1 16 C-2.268 12.346 -1.757 9.509 -1.062 5.75 C-0.868 4.672 -0.673 3.595 -0.473 2.484 C-0.317 1.665 -0.161 0.845 0 0 Z " fill="#7B7C7C" transform="translate(3,498)"/>
<path d="M0 0 C0 0.66 0 1.32 0 2 C-1.531 3.289 -1.531 3.289 -3.5 4.625 C-4.15 5.071 -4.799 5.517 -5.469 5.977 C-5.974 6.314 -6.479 6.652 -7 7 C-7 6.01 -7 5.02 -7 4 C-2.657 0 -2.657 0 0 0 Z " fill="#888887" transform="translate(44,461)"/>
</svg>
